<svg width="249" height="37" viewBox="0 0 249 37" fill="none" xmlns="http://www.w3.org/2000/svg">
<path d="M0.164062 1.45312H5.88281V36H0.164062V1.45312ZM20.3203 20.4375H7.80469V16.5938H20.3203V20.4375ZM21.7734 1.45312V5.71875H7.80469V1.45312H21.7734ZM56.0391 36H50.2266L41.2734 10.125L32.2266 36H26.3672L38.4609 1.5H44.0391L56.0391 36ZM44.3672 25.0312L45.7266 28.8281H36.7734L38.0859 25.0312H44.3672ZM63.2109 1.45312H68.8359V36H63.2109V1.45312ZM86.6484 36H80.6953L74.1797 23.4844C74.0859 23.4844 73.9766 23.5 73.8516 23.5312C73.7578 23.5312 73.6016 23.5312 73.3828 23.5312C73.1641 23.5312 72.8359 23.5312 72.3984 23.5312C71.9922 23.5312 71.4453 23.5312 70.7578 23.5312V19.4062H73.9453C74.6328 19.4062 75.3203 19.2969 76.0078 19.0781C76.6953 18.8281 77.3203 18.4375 77.8828 17.9062C78.4453 17.375 78.8984 16.6406 79.2422 15.7031C79.5859 14.7344 79.7578 13.5469 79.7578 12.1406C79.7578 11.5781 79.6797 10.9375 79.5234 10.2188C79.3672 9.46875 79.0391 8.76562 78.5391 8.10938C78.0703 7.42188 77.3984 6.85938 76.5234 6.42188C75.6484 5.95312 74.4922 5.71875 73.0547 5.71875H70.7578V1.45312H73.1484C74.6172 1.45312 76.0703 1.6875 77.5078 2.15625C78.9453 2.625 80.2266 3.32812 81.3516 4.26562C82.5078 5.20312 83.4297 6.34375 84.1172 7.6875C84.8359 9 85.1953 10.4844 85.1953 12.1406C85.1953 14.6406 84.6172 16.7656 83.4609 18.5156C82.3047 20.2656 80.7422 21.5625 78.7734 22.4062L86.6484 36ZM94.2422 1.45312H99.9609L109.242 22.7812V31.4531H107.742L99.9609 12.2344V36H94.2422V1.45312ZM120.445 1.45312H126.164V36H120.445V12.2344L112.711 31.4531H111.164V22.875L120.445 1.45312ZM140.555 1.45312V31.7344H156.445V36H134.836V1.45312H140.555ZM190.477 36H184.664L175.711 10.125L166.664 36H160.805L172.898 1.5H178.477L190.477 36ZM178.805 25.0312L180.164 28.8281H171.211L172.523 25.0312H178.805ZM214.242 17.8125C214.961 17.9062 215.727 18.1406 216.539 18.5156C217.352 18.8906 218.102 19.4219 218.789 20.1094C219.508 20.7969 220.102 21.6406 220.57 22.6406C221.039 23.6094 221.273 24.7344 221.273 26.0156C221.273 27.5781 221.039 28.9219 220.57 30.0469C220.102 31.1719 219.508 32.1094 218.789 32.8594C218.102 33.5781 217.336 34.1562 216.492 34.5938C215.68 35 214.883 35.3125 214.102 35.5312C213.352 35.75 212.68 35.8906 212.086 35.9531C211.492 35.9844 211.102 36 210.914 36H205.477V31.875H210.586C212.242 31.875 213.539 31.3438 214.477 30.2812C215.414 29.2188 215.883 27.7969 215.883 26.0156C215.883 24.3281 215.398 22.9062 214.43 21.75C213.461 20.5938 212.039 20.0156 210.164 20.0156H205.477V16.2188H207.727C208.414 16.2188 209.117 16.2031 209.836 16.1719C210.555 16.1406 211.227 15.9688 211.852 15.6562C212.477 15.3438 212.977 14.8125 213.352 14.0625C213.758 13.3125 213.961 12.2344 213.961 10.8281C213.961 10.2656 213.883 9.6875 213.727 9.09375C213.57 8.46875 213.258 7.90625 212.789 7.40625C212.32 6.90625 211.648 6.5 210.773 6.1875C209.898 5.875 208.742 5.71875 207.305 5.71875H205.477V1.45312H207.867C209.336 1.45312 210.758 1.625 212.133 1.96875C213.508 2.3125 214.727 2.85938 215.789 3.60938C216.852 4.35938 217.695 5.34375 218.32 6.5625C218.945 7.75 219.258 9.17188 219.258 10.8281C219.258 11.7969 219.102 12.6875 218.789 13.5C218.477 14.2812 218.086 14.9688 217.617 15.5625C217.148 16.1562 216.602 16.6562 215.977 17.0625C215.383 17.4375 214.805 17.6875 214.242 17.8125ZM197.93 1.45312H203.555V36H197.93V1.45312ZM245.086 6.79688C244.93 6.73438 244.742 6.625 244.523 6.46875C244.305 6.3125 243.992 6.17188 243.586 6.04688C243.18 5.89062 242.664 5.76562 242.039 5.67188C241.414 5.57812 240.617 5.5625 239.648 5.625V0.890625C241.023 0.921875 242.414 1.07812 243.82 1.35938C245.258 1.60938 246.414 2.01562 247.289 2.57812C247.102 2.98438 246.883 3.4375 246.633 3.9375C246.383 4.40625 246.148 4.85938 245.93 5.29688C245.711 5.70312 245.523 6.04688 245.367 6.32812C245.211 6.60938 245.117 6.76562 245.086 6.79688ZM228.914 10.5469C228.914 9.17188 229.148 7.9375 229.617 6.84375C230.086 5.75 230.711 4.79688 231.492 3.98438C232.305 3.14062 233.242 2.48438 234.305 2.01562C235.398 1.51562 236.539 1.1875 237.727 1.03125V5.95312C236.727 6.29688 235.898 6.90625 235.242 7.78125C234.586 8.625 234.258 9.48438 234.258 10.3594C234.258 11.5781 234.586 12.5625 235.242 13.3125C235.898 14.0625 236.727 14.7188 237.727 15.2812V20.625C236.695 20.125 235.664 19.5938 234.633 19.0312C233.602 18.4375 232.664 17.75 231.82 16.9688C230.977 16.1875 230.273 15.2812 229.711 14.25C229.18 13.2188 228.914 11.9844 228.914 10.5469ZM229.664 29.6719C230.102 29.9219 230.648 30.1719 231.305 30.4219C231.992 30.6406 232.695 30.8594 233.414 31.0781C234.133 31.2656 234.852 31.4219 235.57 31.5469C236.289 31.6719 236.961 31.7344 237.586 31.7344H237.727V36.1875H237.633C236.883 36.1875 236.102 36.1406 235.289 36.0469C234.508 35.9844 233.711 35.8594 232.898 35.6719C232.086 35.4844 231.305 35.2344 230.555 34.9219C229.836 34.5781 229.211 34.1719 228.68 33.7031L229.664 29.6719ZM239.648 16.2188C240.68 16.6875 241.727 17.1875 242.789 17.7188C243.883 18.25 244.867 18.9062 245.742 19.6875C246.617 20.4375 247.336 21.3594 247.898 22.4531C248.461 23.5469 248.742 24.9062 248.742 26.5312C248.742 27.6562 248.523 28.75 248.086 29.8125C247.68 30.875 247.086 31.8438 246.305 32.7188C245.555 33.5625 244.617 34.2812 243.492 34.875C242.367 35.4688 241.086 35.8594 239.648 36.0469V31.5469C242.211 30.9219 243.492 29.2188 243.492 26.4375C243.492 25.3438 243.133 24.4375 242.414 23.7188C241.695 23 240.773 22.3281 239.648 21.7031V16.2188Z" fill="#F7BF47"/>
</svg>
